<?xml version="1.0" encoding="utf-8"?>
<!-- Generator: Adobe Illustrator 26.0.1, SVG Export Plug-In . SVG Version: 6.00 Build 0)  -->
<svg version="1.1" id="Layer_1" xmlns="http://www.w3.org/2000/svg" xmlns:xlink="http://www.w3.org/1999/xlink" x="0px" y="0px"
	 viewBox="0 0 1080 1080" style="enable-background:new 0 0 1080 1080;" xml:space="preserve">
<style type="text/css">
	.st0{fill:#44B578;}
	.st1{fill:#0C172F;}
</style>
<g>
	<g>
		<g>
			<path class="st0" d="M474.83,192.84l-20.3,53.65c0,0-126.15,39.15-143.55,173.27c-16.58,127.77,47.78,203.09,107.18,237.74
				c4.5,2.63,10.28,0.23,11.86-4.74l69.68-220.09c1.68-5.32-2.29-10.74-7.86-10.74h-86.12l14.56-13.11
				c1.51-1.36,3.48-2.12,5.52-2.12h88.47c5.14,0,9.03,4.65,8.12,9.71l-53.88,298.75c-0.89,4.93-5.87,7.96-10.63,6.4
				c-35.26-11.61-163.45-64.23-189.65-222.06C237.76,316.09,384.2,214.59,474.83,192.84z"/>
			<path class="st0" d="M527.24,126.5c0,0-7.61,97.51-61.26,141.73c0,0,56.91,35.16,30.63,97.15h75.94c0,0-26.46-57.27,28.27-94.97
				c0,0-58.36-44.59-60.9-143.91H527.24z"/>
			<circle class="st1" cx="533.4" cy="249.84" r="19.57"/>
			<rect x="529.48" y="126.5" class="st1" width="7.84" height="108.39"/>
			<rect x="495.34" y="378.43" class="st1" width="76.12" height="5.98"/>
			<path class="st0" d="M554.93,406.71L554.93,406.71c3.66,0,6.88,2.41,7.91,5.92l73.73,250.54c1.49,5.08,7.27,7.5,11.88,4.91
				c30.78-17.27,129.24-83.73,124.34-225.12C767,275.49,608.22,238.51,608.22,238.51l-15.95-45.67c0,0,170.37,18.12,213.87,191.58
				c46.56,185.65-82.81,314.51-196.69,344.97c-4.64,1.24-9.32-1.92-10.13-6.65L546.8,416.35
				C545.94,411.31,549.82,406.71,554.93,406.71z"/>
			<path class="st1" d="M537.2,381.6l35.6,349.25c0.36,2.01-0.98,3.92-3,4.25c-9.55,1.53-36.99,4.88-71.65-0.08
				c-2.04-0.29-3.45-2.24-3.1-4.27L530,381.61C530.7,377.58,536.48,377.58,537.2,381.6z"/>
		</g>
	</g>
	<g>
		<g>
			<path class="st1" d="M56.3,930.91v1.71c0,2.29,2,4.29,4.29,4.29h69.5v16.3h-69.5c-11.44,0-20.59-8-20.59-19.16v-5.72V762.46h16.3
				V930.91z"/>
			<path class="st1" d="M163.55,762.46v190.76h-16.3V762.46H163.55z"/>
			<path class="st1" d="M197.01,803.93v149.29h-16.3V762.46h2.57L311.69,912.9V762.75h16.59v190.47h-3.43L197.01,803.93z"/>
			<path class="st1" d="M506.46,814.23c-13.16-20.02-41.18-35.18-65.78-35.18c-48.62,0-78.93,35.47-78.93,78.94
				s34.61,78.93,78.65,78.93c46.33,0,70.93-32.03,77.51-62.35h-77.22v-16.29h95.52c-0.29,52.34-42.9,94.94-95.52,94.94
				c-56.05,0-95.23-42.61-95.23-95.23c0-52.62,42.61-95.24,95.23-95.24c29.74,0,60.92,16.59,77.5,39.76L506.46,814.23z"/>
		</g>
		<g>
			<path class="st1" d="M567.54,762.74v121.83c0,31.17,22.31,52.62,52.91,52.62c30.03,0,52.62-22.88,52.62-52.62V762.74h16.3
				c0,27.18-0.29,54.35-0.29,81.23c0,13.73,0,27.17,0.29,40.61c0,40.04-28.6,68.93-69.21,68.93c-38.04,0-68.92-30.88-68.92-68.93
				V762.74H567.54z"/>
			<path class="st1" d="M810.92,779.33h-81.5h1.14h-3.71c-2,0-4.01,1.71-4.01,4v58.63h53.77v16.59h-53.77v74.35
				c0,2.86,1.43,4.29,4.01,4.29h84.08v16.3h-84.08c-11.15,0-20.3-9.15-20.3-20.3V783.33c0-11.44,9.15-20.59,20.3-20.59h84.08V779.33
				z"/>
			<path class="st1" d="M895.29,769.04c7.73,4.29,15.73,12.29,24.31,24.02l-15.16,11.44c-6.86-9.15-12.87-15.44-17.73-18.3
				c-5.15-2.86-10.3-4.58-16.3-4.58c-7.43,0-13.44,2.29-18.3,7.15c-4.86,4.29-7.15,10.01-7.15,16.59c0,4,0.86,8,2.58,11.73
				c1.72,3.71,4.86,8,9.15,12.29c2.58,2.29,10.58,8.58,24.02,18.59c16.02,12.01,27.17,21.74,33.18,29.46
				c6.01,7.73,8.86,16.3,8.86,25.45c0,13.73-5.15,25.45-15.44,35.18c-10.01,10-22.59,15.15-37.18,15.15
				c-11.44,0-21.45-3.14-30.88-9.15c-9.15-6-17.45-16.02-25.17-30.03l15.73-9.72c11.15,20.58,24.02,30.88,38.61,30.88
				c6.29,0,12.01-1.71,17.45-4.58c5.72-2.86,9.72-6.86,12.58-11.73c2.86-4.58,4.29-10,4.29-15.44c0-6.01-2-12.3-6.29-18.3
				c-5.72-8.29-16.3-16.59-32.03-25.17c-15.45-11.73-24.88-20.3-28.6-25.45c-6.58-8.86-10.01-18.3-10.01-28.6
				c0-8,2.01-15.44,5.72-22.02c4.01-6.58,9.44-11.73,16.3-15.44c7.15-4,14.87-6,23.17-6C879.56,762.46,887.85,764.74,895.29,769.04z
				"/>
			<path class="st1" d="M1040,762.74v16.59h-43.47V953.5h-16.3V779.33h-43.47v-16.59H1040z"/>
		</g>
	</g>
</g>
</svg>
